#!OML:ASF H:\MichaelJackson\Top Level 1\Subject 1\Session 1\male.ASF
:FULLY-SPECIFIED
:DEGREES
852
root 0.641143 14.2006 28.4164 46.7817 40.0853 8.20462
lowerback 34.345 -3.45666 7.77218
upperback 9.7757 -1.44445 -1.87193
thorax -6.81652 -0.42349 -5.58914
lowerneck -12.9879 6.97326 10.0854
upperneck -10.8115 7.67461 -22.0848
head 0.44967 3.84159 -8.15482
rclavicle 3.26007e-014 -3.04141e-014
rhumerus -24.7244 26.0644 -15.4875
rradius 114.244
rwrist -31.2753
rhand -26.7192 -39.2072
rfingers 7.12502
rthumb -0.14886 290.813
lclavicle 3.26007e-014 -3.04141e-014
lhumerus -36.4835 13.9037 73.1759
lradius 52.5277
lwrist 27.6012
lhand -30.6603 6.77653
lfingers 7.12502
lthumb -3.95515 36.7196
rfemur -90.1317 -5.25869 23.0572
rtibia 83.3119
rfoot -15.534 37.9273
rtoes 50.762
lfemur -47.4048 26.0807 -15.568
ltibia 53.6251
lfoot -20.0578 30.6409
ltoes 55.5559
853
root 0.637447 14.2496 28.4964 46.6495 40.311 8.16004
lowerback 34.9217 -3.4059 7.72855
upperback 9.67256 -1.31776 -1.70106
thorax -6.98575 -0.370664 -5.40637
lowerneck -12.9369 6.88469 10.0512
upperneck -10.8819 7.55174 -22.0189
head 0.39545 3.78725 -8.1414
rclavicle 2.22639e-014 -1.90833e-014
rhumerus -25.5566 25.9395 -16.4218
rradius 114.266
rwrist -31.0674
rhand -26.773 -39.1875
rfingers 7.12502
rthumb -0.200884 290.833
lclavicle 2.22639e-014 -1.90833e-014
lhumerus -36.3526 13.8729 73.359
lradius 52.7252
lwrist 27.6926
lhand -30.6826 6.75112
lfingers 7.12502
lthumb -3.97663 36.6938
rfemur -89.4011 -5.04081 23.1419
rtibia 82.8523
rfoot -15.4044 37.7608
rtoes 51.0852
lfemur -49.4283 26.3582 -16.4286
ltibia 55.4349
lfoot -20.306 30.1845
ltoes 55.4032
854
root 0.632664 14.2977 28.5776 46.5009 40.5622 8.127
lowerback 35.4164 -3.34726 7.67426
upperback 9.66116 -1.19493 -1.5248
thorax -7.15155 -0.318591 -5.22619
lowerneck -12.8847 6.79369 10.032
upperneck -10.942 7.42528 -21.9317
head 0.342648 3.72951 -8.12357
rclavicle 5.24792e-014 2.18663e-014
rhumerus -26.3729 25.7823 -17.3848
rradius 114.272
rwrist -30.8792
rhand -26.7737 -39.161
rfingers 7.12502
rthumb -0.201531 290.859
lclavicle 5.24792e-014 2.18663e-014
lhumerus -36.2336 13.8328 73.5268
lradius 52.9358
lwrist 27.8699
lhand -30.7118 6.66765
lfingers 7.12502
lthumb -4.00481 36.6098
rfemur -88.6502 -4.84604 23.2581
rtibia 82.396
rfoot -15.2921 37.5774
rtoes 51.385
lfemur -51.4788 26.4914 -17.2671
ltibia 57.2666
lfoot -20.6401 29.6743
ltoes 55.1767
855
root 0.626355 14.3445 28.66 46.3549 40.8339 8.127
lowerback 35.9042 -3.29556 7.6088
upperback 9.65594 -1.08588 -1.36463
thorax -7.30955 -0.271923 -5.05339
lowerneck -12.8291 6.70109 10.0291
upperneck -10.999 7.29576 -21.8107
head 0.28809 3.66887 -8.09756
rclavicle 4.77083e-014 1.88845e-014
rhumerus -27.1827 25.5796 -18.3999
rradius 114.282
rwrist -30.7314
rhand -26.7284 -39.1386
rfingers 7.12502
rthumb -0.157755 290.882
lclavicle 4.77083e-014 1.88845e-014
lhumerus -36.117 13.7784 73.6625
lradius 53.1433
lwrist 28.0932
lhand -30.7471 6.53135
lfingers 7.12502
lthumb -4.03896 36.4728
rfemur -87.8898 -4.6866 23.3907
rtibia 81.9474
rfoot -15.1947 37.387
rtoes 51.6559
lfemur -53.5635 26.4757 -18.1007
ltibia 59.1146
lfoot -21.0147 29.0917
ltoes 54.8981
856
root 0.618193 14.3899 28.7435 46.2288 41.1274 8.16472
lowerback 36.3689 -3.23825 7.51646
upperback 9.6552 -0.981229 -1.20703
thorax -7.45429 -0.226575 -4.86896
lowerneck -12.7715 6.60201 10.0397
upperneck -11.0508 7.15693 -21.6643
head 0.232169 3.60221 -8.06615
rclavicle 5.08889e-014 1.09332e-013
rhumerus -27.9989 25.3219 -19.4493
rradius 114.316
rwrist -30.6358
rhand -26.6712 -39.1487
rfingers 7.12502
rthumb -0.102531 290.872
lclavicle 5.08889e-014 1.09332e-013
lhumerus -35.9889 13.7109 73.7836
lradius 53.3265
lwrist 28.2983
lhand -30.768 6.37958
lfingers 7.12502
lthumb -4.05914 36.3207
rfemur -87.1373 -4.56395 23.5354
rtibia 81.5076
rfoot -15.0941 37.1977
rtoes 51.9153
lfemur -55.6959 26.3017 -18.9298
ltibia 60.9699
lfoot -21.382 28.4329
ltoes 54.5857
857
root 0.608171 14.4338 28.8283 46.1309 41.4365 8.23878
lowerback 36.7899 -3.21252 7.43902
upperback 9.66352 -0.919146 -1.10117
thorax -7.57985 -0.198824 -4.73289
lowerneck -12.717 6.50901 10.0584
upperneck -11.1096 7.0262 -21.4495
head 0.171751 3.53831 -8.01297
rclavicle -7.31528e-014 -1.05356e-014
rhumerus -28.8011 25.0117 -20.5981
rradius 114.388
rwrist -30.57
rhand -26.6267 -39.2124
rfingers 7.12502
rthumb -0.0594987 290.808
lclavicle -7.31528e-014 -1.05356e-014
lhumerus -35.8427 13.6511 73.8181
lradius 53.4706
lwrist 28.4398
lhand -30.7805 6.24073
lfingers 7.12502
lthumb -4.07117 36.1816
rfemur -86.4059 -4.47186 23.6847
rtibia 81.0802
rfoot -14.9764 37.0168
rtoes 52.1654
lfemur -57.8758 25.9663 -19.7502
ltibia 62.8199
lfoot -21.6996 27.704
ltoes 54.2731
858
root 0.596406 14.476 28.9143 46.0577 41.7584 8.32588
lowerback 37.1701 -3.16779 7.33458
upperback 9.66981 -0.846979 -0.988388
thorax -7.69144 -0.166441 -4.58037
lowerneck -12.66 6.40711 10.0747
upperneck -11.1591 6.88549 -21.2188
head 0.111184 3.46861 -7.95469
rclavicle -2.22639e-014 2.78299e-015
rhumerus -29.6127 24.6559 -21.7559
rradius 114.508
rwrist -30.5192
rhand -26.6201 -39.3292
rfingers 7.12502
rthumb -0.0531734 290.691
lclavicle -2.22639e-014 2.78299e-015
lhumerus -35.6737 13.5967 73.8547
lradius 53.5655
lwrist 28.4635
lhand -30.7805 6.16229
lfingers 7.12502
lthumb -4.0712 36.1031
rfemur -85.7086 -4.39002 23.8449
rtibia 80.6673
rfoot -14.8318 36.8426
rtoes 52.4055
lfemur -60.1026 25.4717 -20.5349
ltibia 64.6527
lfoot -21.9466 26.899
ltoes 53.9492
859
root 0.583346 14.5163 29.0009 46.0137 42.0888 8.41044
lowerback 37.4918 -3.10546 7.21621
upperback 9.6718 -0.764438 -0.871513
thorax -7.78621 -0.129517 -4.42157
lowerneck -12.6006 6.29795 10.0851
upperneck -11.1985 6.73747 -20.9788
head 0.0515631 3.39467 -7.89247
rclavicle 1.11319e-014 3.85642e-014
rhumerus -30.4207 24.2667 -22.9155
rradius 114.675
rwrist -30.4448
rhand -26.6581 -39.4813
rfingers 7.12502
rthumb -0.0898446 290.539
lclavicle 1.11319e-014 3.85642e-014
lhumerus -35.4904 13.5531 73.8909
lradius 53.6194
lwrist 28.3787
lhand -30.7754 6.15375
lfingers 7.12502
lthumb -4.06622 36.0947
rfemur -85.0669 -4.306 24.02
rtibia 80.2751
rfoot -14.6474 36.6751
rtoes 52.6396
lfemur -62.3761 24.8111 -21.2574
ltibia 66.4534
lfoot -22.0867 26.021
ltoes 53.5966
860
root 0.569637 14.5541 29.0881 45.9897 42.4252 8.47058
lowerback 37.7544 -3.02236 7.09514
upperback 9.6638 -0.663703 -0.746497
thorax -7.86995 -0.0851648 -4.26098
lowerneck -12.5394 6.18228 10.0878
upperneck -11.2198 6.58396 -20.7391
head -0.00378065 3.31722 -7.82881
rclavicle 2.70347e-014 5.08889e-014
rhumerus -31.2207 23.8607 -24.0595
rradius 114.884
rwrist -30.3198
rhand -26.7387 -39.6375
rfingers 7.12502
rthumb -0.167704 290.383
lclavicle 2.70347e-014 5.08889e-014
lhumerus -35.3066 13.5241 73.9351
lradius 53.6448
lwrist 28.2173
lhand -30.7748 6.20726
lfingers 7.12502
lthumb -4.06564 36.1482
rfemur -84.4917 -4.20966 24.2229
rtibia 79.9104
rfoot -14.4198 36.5147
rtoes 52.8569
lfemur -64.6835 23.9871 -21.8777
ltibia 68.2074
lfoot -22.1135 25.0392
ltoes 53.1911
861
root 0.555942 14.5892 29.1755 45.9742 42.7626 8.49288
lowerback 37.9589 -2.92069 6.98075
upperback 9.64629 -0.5444 -0.61636
thorax -7.94301 -0.0332332 -4.10677
lowerneck -12.4822 6.06428 10.0847
upperneck -11.2154 6.43099 -20.5016
head -0.0505937 3.23863 -7.76378
rclavicle 2.8625e-014 7.196e-014
rhumerus -32.0017 23.4427 -25.1813
rradius 115.124
rwrist -30.1254
rhand -26.8252 -39.7428
rfingers 7.12502
rthumb -0.251296 290.278
lclavicle 2.8625e-014 7.196e-014
lhumerus -35.1365 13.4994 73.9847
lradius 53.6627
lwrist 28.0522
lhand -30.7837 6.30556
lfingers 7.12502
lthumb -4.07424 36.2463
rfemur -83.9844 -4.09595 24.4593
rtibia 79.5803
rfoot -14.1425 36.3618
rtoes 53.0504
lfemur -66.9957 22.9896 -22.3477
ltibia 69.894
lfoot -22.0388 23.9246
ltoes 52.6898
